<svg id="visual" viewBox="0 0 960 540" width="960" height="540" xmlns="http://www.w3.org/2000/svg" xmlns:xlink="http://www.w3.org/1999/xlink" version="1.1"><rect x="0" y="0" width="960" height="540" fill="#ffe000"></rect><defs><linearGradient id="grad1_0" x1="43.8%" y1="0%" x2="100%" y2="100%"><stop offset="14.444444444444446%" stop-color="#ff3e00" stop-opacity="1"></stop><stop offset="85.55555555555554%" stop-color="#ff3e00" stop-opacity="1"></stop></linearGradient></defs><defs><linearGradient id="grad1_1" x1="43.8%" y1="0%" x2="100%" y2="100%"><stop offset="14.444444444444446%" stop-color="#ff3e00" stop-opacity="1"></stop><stop offset="85.55555555555554%" stop-color="#ff5d00" stop-opacity="1"></stop></linearGradient></defs><defs><linearGradient id="grad1_2" x1="43.8%" y1="0%" x2="100%" y2="100%"><stop offset="14.444444444444446%" stop-color="#ff7600" stop-opacity="1"></stop><stop offset="85.55555555555554%" stop-color="#ff5d00" stop-opacity="1"></stop></linearGradient></defs><defs><linearGradient id="grad1_3" x1="43.8%" y1="0%" x2="100%" y2="100%"><stop offset="14.444444444444446%" stop-color="#ff7600" stop-opacity="1"></stop><stop offset="85.55555555555554%" stop-color="#ff8d00" stop-opacity="1"></stop></linearGradient></defs><defs><linearGradient id="grad1_4" x1="43.8%" y1="0%" x2="100%" y2="100%"><stop offset="14.444444444444446%" stop-color="#ffa300" stop-opacity="1"></stop><stop offset="85.55555555555554%" stop-color="#ff8d00" stop-opacity="1"></stop></linearGradient></defs><defs><linearGradient id="grad1_5" x1="43.8%" y1="0%" x2="100%" y2="100%"><stop offset="14.444444444444446%" stop-color="#ffa300" stop-opacity="1"></stop><stop offset="85.55555555555554%" stop-color="#ffb800" stop-opacity="1"></stop></linearGradient></defs><defs><linearGradient id="grad1_6" x1="43.8%" y1="0%" x2="100%" y2="100%"><stop offset="14.444444444444446%" stop-color="#ffcc00" stop-opacity="1"></stop><stop offset="85.55555555555554%" stop-color="#ffb800" stop-opacity="1"></stop></linearGradient></defs><defs><linearGradient id="grad1_7" x1="43.8%" y1="0%" x2="100%" y2="100%"><stop offset="14.444444444444446%" stop-color="#ffcc00" stop-opacity="1"></stop><stop offset="85.55555555555554%" stop-color="#ffe000" stop-opacity="1"></stop></linearGradient></defs><defs><linearGradient id="grad2_0" x1="0%" y1="0%" x2="56.3%" y2="100%"><stop offset="14.444444444444446%" stop-color="#ff3e00" stop-opacity="1"></stop><stop offset="85.55555555555554%" stop-color="#ff3e00" stop-opacity="1"></stop></linearGradient></defs><defs><linearGradient id="grad2_1" x1="0%" y1="0%" x2="56.3%" y2="100%"><stop offset="14.444444444444446%" stop-color="#ff5d00" stop-opacity="1"></stop><stop offset="85.55555555555554%" stop-color="#ff3e00" stop-opacity="1"></stop></linearGradient></defs><defs><linearGradient id="grad2_2" x1="0%" y1="0%" x2="56.3%" y2="100%"><stop offset="14.444444444444446%" stop-color="#ff5d00" stop-opacity="1"></stop><stop offset="85.55555555555554%" stop-color="#ff7600" stop-opacity="1"></stop></linearGradient></defs><defs><linearGradient id="grad2_3" x1="0%" y1="0%" x2="56.3%" y2="100%"><stop offset="14.444444444444446%" stop-color="#ff8d00" stop-opacity="1"></stop><stop offset="85.55555555555554%" stop-color="#ff7600" stop-opacity="1"></stop></linearGradient></defs><defs><linearGradient id="grad2_4" x1="0%" y1="0%" x2="56.3%" y2="100%"><stop offset="14.444444444444446%" stop-color="#ff8d00" stop-opacity="1"></stop><stop offset="85.55555555555554%" stop-color="#ffa300" stop-opacity="1"></stop></linearGradient></defs><defs><linearGradient id="grad2_5" x1="0%" y1="0%" x2="56.3%" y2="100%"><stop offset="14.444444444444446%" stop-color="#ffb800" stop-opacity="1"></stop><stop offset="85.55555555555554%" stop-color="#ffa300" stop-opacity="1"></stop></linearGradient></defs><defs><linearGradient id="grad2_6" x1="0%" y1="0%" x2="56.3%" y2="100%"><stop offset="14.444444444444446%" stop-color="#ffb800" stop-opacity="1"></stop><stop offset="85.55555555555554%" stop-color="#ffcc00" stop-opacity="1"></stop></linearGradient></defs><defs><linearGradient id="grad2_7" x1="0%" y1="0%" x2="56.3%" y2="100%"><stop offset="14.444444444444446%" stop-color="#ffe000" stop-opacity="1"></stop><stop offset="85.55555555555554%" stop-color="#ffcc00" stop-opacity="1"></stop></linearGradient></defs><g transform="translate(960, 0)"><path d="M0 540C-24.8 531.6 -49.7 523.2 -74.6 518.7C-99.5 514.2 -124.5 513.5 -149.6 509.5C-174.7 505.4 -199.9 498 -221.4 484.8C-242.9 471.7 -260.7 452.9 -282.2 439.1C-303.7 425.4 -328.9 416.6 -345.8 399C-362.6 381.5 -371.2 355.2 -388.5 336.6C-405.7 318 -431.7 307.3 -450.9 289.8C-470.2 272.3 -482.7 248.2 -487.6 222.7C-492.4 197.2 -489.7 170.3 -498 146.2C-506.3 122.1 -525.7 100.8 -534.5 76.9C-543.4 52.9 -541.7 26.5 -540 0L0 0Z" fill="#ffd600"></path><path d="M0 472.5C-21.7 465.1 -43.4 457.8 -65.3 453.8C-87.1 449.9 -108.9 449.3 -130.9 445.8C-152.9 442.3 -174.9 435.7 -193.7 424.2C-212.6 412.7 -228.1 396.3 -246.9 384.2C-265.7 372.2 -287.8 364.5 -302.5 349.2C-317.3 333.8 -324.8 310.8 -339.9 294.5C-355 278.3 -377.7 268.8 -394.5 253.6C-411.4 238.3 -422.3 217.1 -426.6 194.8C-430.9 172.5 -428.5 149 -435.7 127.9C-443 106.9 -459.9 88.2 -467.7 67.2C-475.4 46.3 -474 23.2 -472.5 0L0 0Z" fill="#ffc200"></path><path d="M0 405C-18.6 398.7 -37.2 392.4 -55.9 389C-74.6 385.6 -93.4 385.2 -112.2 382.1C-131 379.1 -149.9 373.5 -166.1 363.6C-182.2 353.8 -195.5 339.7 -211.7 329.4C-227.8 319 -246.7 312.4 -259.3 299.3C-272 286.1 -278.4 266.4 -291.3 252.4C-304.3 238.5 -323.8 230.4 -338.2 217.3C-352.6 204.2 -362 186.1 -365.7 167C-369.3 147.9 -367.3 127.7 -373.5 109.7C-379.7 91.6 -394.2 75.6 -400.9 57.6C-407.5 39.7 -406.3 19.9 -405 0L0 0Z" fill="#ffae00"></path><path d="M0 337.5C-15.5 332.2 -31 327 -46.6 324.2C-62.2 321.3 -77.8 321 -93.5 318.4C-109.2 315.9 -124.9 311.2 -138.4 303C-151.8 294.8 -163 283.1 -176.4 274.5C-189.8 265.8 -205.6 260.4 -216.1 249.4C-226.6 238.4 -232 222 -242.8 210.4C-253.6 198.8 -269.8 192 -281.8 181.1C-293.8 170.2 -301.7 155.1 -304.7 139.2C-307.8 123.2 -306 106.4 -311.2 91.4C-316.4 76.3 -328.5 63 -334.1 48C-339.6 33.1 -338.5 16.5 -337.5 0L0 0Z" fill="#ff9800"></path><path d="M0 270C-12.4 265.8 -24.8 261.6 -37.3 259.3C-49.7 257.1 -62.2 256.8 -74.8 254.7C-87.4 252.7 -100 249 -110.7 242.4C-121.5 235.9 -130.4 226.5 -141.1 219.6C-151.9 212.7 -164.4 208.3 -172.9 199.5C-181.3 190.7 -185.6 177.6 -194.2 168.3C-202.9 159 -215.8 153.6 -225.5 144.9C-235.1 136.2 -241.3 124.1 -243.8 111.3C-246.2 98.6 -244.8 85.2 -249 73.1C-253.1 61.1 -262.8 50.4 -267.3 38.4C-271.7 26.5 -270.8 13.2 -270 0L0 0Z" fill="#ff8200"></path><path d="M0 202.5C-9.3 199.3 -18.6 196.2 -28 194.5C-37.3 192.8 -46.7 192.6 -56.1 191.1C-65.5 189.5 -75 186.7 -83 181.8C-91.1 176.9 -97.8 169.8 -105.8 164.7C-113.9 159.5 -123.3 156.2 -129.7 149.6C-136 143.1 -139.2 133.2 -145.7 126.2C-152.1 119.3 -161.9 115.2 -169.1 108.7C-176.3 102.1 -181 93.1 -182.8 83.5C-184.7 73.9 -183.6 63.9 -186.7 54.8C-189.9 45.8 -197.1 37.8 -200.4 28.8C-203.8 19.9 -203.1 9.9 -202.5 0L0 0Z" fill="#ff6a00"></path><path d="M0 135C-6.2 132.9 -12.4 130.8 -18.6 129.7C-24.9 128.5 -31.1 128.4 -37.4 127.4C-43.7 126.4 -50 124.5 -55.4 121.2C-60.7 117.9 -65.2 113.2 -70.6 109.8C-75.9 106.3 -82.2 104.1 -86.4 99.8C-90.7 95.4 -92.8 88.8 -97.1 84.1C-101.4 79.5 -107.9 76.8 -112.7 72.4C-117.5 68.1 -120.7 62 -121.9 55.7C-123.1 49.3 -122.4 42.6 -124.5 36.6C-126.6 30.5 -131.4 25.2 -133.6 19.2C-135.8 13.2 -135.4 6.6 -135 0L0 0Z" fill="#ff4e00"></path><path d="M0 67.5C-3.1 66.4 -6.2 65.4 -9.3 64.8C-12.4 64.3 -15.6 64.2 -18.7 63.7C-21.8 63.2 -25 62.2 -27.7 60.6C-30.4 59 -32.6 56.6 -35.3 54.9C-38 53.2 -41.1 52.1 -43.2 49.9C-45.3 47.7 -46.4 44.4 -48.6 42.1C-50.7 39.8 -54 38.4 -56.4 36.2C-58.8 34 -60.3 31 -60.9 27.8C-61.6 24.6 -61.2 21.3 -62.2 18.3C-63.3 15.3 -65.7 12.6 -66.8 9.6C-67.9 6.6 -67.7 3.3 -67.5 0L0 0Z" fill="#ff3e00"></path></g><g transform="translate(0, 540)"><path d="M0 -540C25.7 -537.4 51.3 -534.9 76 -528.6C100.7 -522.3 124.4 -512.2 147.6 -502.8C170.8 -493.3 193.5 -484.4 217.7 -476.6C241.9 -468.9 267.6 -462.2 287.6 -447.5C307.6 -432.9 321.8 -410.3 340.5 -393C359.3 -375.7 382.6 -363.8 399.8 -346.4C417 -329 428.1 -306.1 444.2 -285.5C460.2 -264.8 481.2 -246.5 487.6 -222.7C493.9 -198.8 485.6 -169.5 493.2 -144.8C500.7 -120.2 524.1 -100.2 534.5 -76.9C544.9 -53.5 542.5 -26.7 540 0L0 0Z" fill="#ffd600"></path><path d="M0 -472.5C22.4 -470.3 44.9 -468 66.5 -462.5C88.1 -457 108.9 -448.2 129.2 -439.9C149.5 -431.7 169.3 -423.9 190.5 -417.1C211.6 -410.3 234.2 -404.4 251.7 -391.6C269.1 -378.8 281.6 -359 298 -343.9C314.4 -328.8 334.8 -318.4 349.8 -303.1C364.9 -287.9 374.6 -267.8 388.7 -249.8C402.7 -231.7 421.1 -215.7 426.6 -194.8C432.2 -174 424.9 -148.3 431.5 -126.7C438.1 -105.1 458.6 -87.7 467.7 -67.2C476.8 -46.8 474.7 -23.4 472.5 0L0 0Z" fill="#ffc200"></path><path d="M0 -405C19.2 -403.1 38.5 -401.1 57 -396.4C75.5 -391.7 93.3 -384.2 110.7 -377.1C128.1 -370 145.1 -363.3 163.3 -357.5C181.4 -351.7 200.7 -346.7 215.7 -335.7C230.7 -324.7 241.3 -307.7 255.4 -294.7C269.5 -281.8 286.9 -272.9 299.8 -259.8C312.8 -246.8 321.1 -229.6 333.1 -214.1C345.2 -198.6 360.9 -184.9 365.7 -167C370.4 -149.1 364.2 -127.1 369.9 -108.6C375.5 -90.1 393 -75.2 400.9 -57.6C408.7 -40.1 406.9 -20.1 405 0L0 0Z" fill="#ffae00"></path><path d="M0 -337.5C16 -335.9 32.1 -334.3 47.5 -330.4C62.9 -326.4 77.8 -320.1 92.3 -314.2C106.8 -308.3 120.9 -302.8 136 -297.9C151.2 -293 167.3 -288.9 179.8 -279.7C192.2 -270.6 201.1 -256.4 212.8 -245.6C224.5 -234.8 239.1 -227.4 249.9 -216.5C260.6 -205.6 267.6 -191.3 277.6 -178.4C287.6 -165.5 300.8 -154.1 304.7 -139.2C308.7 -124.3 303.5 -105.9 308.2 -90.5C312.9 -75.1 327.5 -62.6 334.1 -48C340.6 -33.4 339 -16.7 337.5 0L0 0Z" fill="#ff9800"></path><path d="M0 -270C12.8 -268.7 25.7 -267.4 38 -264.3C50.3 -261.1 62.2 -256.1 73.8 -251.4C85.4 -246.7 96.7 -242.2 108.8 -238.3C120.9 -234.4 133.8 -231.1 143.8 -223.8C153.8 -216.4 160.9 -205.1 170.3 -196.5C179.6 -187.9 191.3 -181.9 199.9 -173.2C208.5 -164.5 214.1 -153 222.1 -142.7C230.1 -132.4 240.6 -123.3 243.8 -111.3C247 -99.4 242.8 -84.7 246.6 -72.4C250.4 -60.1 262 -50.1 267.3 -38.4C272.5 -26.7 271.2 -13.4 270 0L0 0Z" fill="#ff8200"></path><path d="M0 -202.5C9.6 -201.5 19.2 -200.6 28.5 -198.2C37.8 -195.8 46.7 -192.1 55.4 -188.5C64.1 -185 72.6 -181.7 81.6 -178.7C90.7 -175.8 100.4 -173.3 107.9 -167.8C115.3 -162.3 120.7 -153.8 127.7 -147.4C134.7 -140.9 143.5 -136.4 149.9 -129.9C156.4 -123.4 160.5 -114.8 166.6 -107C172.6 -99.3 180.5 -92.4 182.8 -83.5C185.2 -74.6 182.1 -63.5 184.9 -54.3C187.8 -45.1 196.5 -37.6 200.4 -28.8C204.4 -20.1 203.4 -10 202.5 0L0 0Z" fill="#ff6a00"></path><path d="M0 -135C6.4 -134.4 12.8 -133.7 19 -132.1C25.2 -130.6 31.1 -128.1 36.9 -125.7C42.7 -123.3 48.4 -121.1 54.4 -119.2C60.5 -117.2 66.9 -115.6 71.9 -111.9C76.9 -108.2 80.4 -102.6 85.1 -98.2C89.8 -93.9 95.6 -91 99.9 -86.6C104.3 -82.3 107 -76.5 111 -71.4C115.1 -66.2 120.3 -61.6 121.9 -55.7C123.5 -49.7 121.4 -42.4 123.3 -36.2C125.2 -30 131 -25.1 133.6 -19.2C136.2 -13.4 135.6 -6.7 135 0L0 0Z" fill="#ff4e00"></path><path d="M0 -67.5C3.2 -67.2 6.4 -66.9 9.5 -66.1C12.6 -65.3 15.6 -64 18.5 -62.8C21.4 -61.7 24.2 -60.6 27.2 -59.6C30.2 -58.6 33.5 -57.8 36 -55.9C38.4 -54.1 40.2 -51.3 42.6 -49.1C44.9 -47 47.8 -45.5 50 -43.3C52.1 -41.1 53.5 -38.3 55.5 -35.7C57.5 -33.1 60.2 -30.8 60.9 -27.8C61.7 -24.9 60.7 -21.2 61.6 -18.1C62.6 -15 65.5 -12.5 66.8 -9.6C68.1 -6.7 67.8 -3.3 67.5 0L0 0Z" fill="#ff3e00"></path></g></svg>